<svg width="14" height="16" viewBox="0 0 14 16" fill="none" xmlns="http://www.w3.org/2000/svg">
<mask id="path-1-inside-1_102_88" fill="white">
<path fill-rule="evenodd" clip-rule="evenodd" d="M5.19995 2.60005C3.70878 2.60005 2.49995 3.80888 2.49995 5.30005V8.90005C2.49995 11.3853 4.51467 13.4 6.99995 13.4C9.48523 13.4 11.5 11.3853 11.5 8.90005V5.30005C11.5 4.80299 11.9029 4.40005 12.4 4.40005C12.897 4.40005 13.3 4.80299 13.3 5.30005V8.90005C13.3 12.3794 10.4793 15.2 6.99995 15.2C3.52056 15.2 0.699951 12.3794 0.699951 8.90005V5.30005C0.699951 2.81477 2.71467 0.800049 5.19995 0.800049C7.68523 0.800049 9.69995 2.81477 9.69995 5.30005V8.90005C9.69995 10.3912 8.49112 11.6 6.99995 11.6C5.50878 11.6 4.29995 10.3912 4.29995 8.90005V5.30005C4.29995 4.80299 4.7029 4.40005 5.19995 4.40005C5.69701 4.40005 6.09995 4.80299 6.09995 5.30005V8.90005C6.09995 9.3971 6.5029 9.80005 6.99995 9.80005C7.49701 9.80005 7.89995 9.3971 7.89995 8.90005V5.30005C7.89995 3.80888 6.69112 2.60005 5.19995 2.60005Z"/>
</mask>
<path fill-rule="evenodd" clip-rule="evenodd" d="M5.19995 2.60005C3.70878 2.60005 2.49995 3.80888 2.49995 5.30005V8.90005C2.49995 11.3853 4.51467 13.4 6.99995 13.4C9.48523 13.4 11.5 11.3853 11.5 8.90005V5.30005C11.5 4.80299 11.9029 4.40005 12.4 4.40005C12.897 4.40005 13.3 4.80299 13.3 5.30005V8.90005C13.3 12.3794 10.4793 15.2 6.99995 15.2C3.52056 15.2 0.699951 12.3794 0.699951 8.90005V5.30005C0.699951 2.81477 2.71467 0.800049 5.19995 0.800049C7.68523 0.800049 9.69995 2.81477 9.69995 5.30005V8.90005C9.69995 10.3912 8.49112 11.6 6.99995 11.6C5.50878 11.6 4.29995 10.3912 4.29995 8.90005V5.30005C4.29995 4.80299 4.7029 4.40005 5.19995 4.40005C5.69701 4.40005 6.09995 4.80299 6.09995 5.30005V8.90005C6.09995 9.3971 6.5029 9.80005 6.99995 9.80005C7.49701 9.80005 7.89995 9.3971 7.89995 8.90005V5.30005C7.89995 3.80888 6.69112 2.60005 5.19995 2.60005Z" fill="#111827"/>
<path d="M5.19995 0.600049C2.60421 0.600049 0.499951 2.70431 0.499951 5.30005H4.49995C4.49995 4.91345 4.81335 4.60005 5.19995 4.60005V0.600049ZM0.499951 5.30005V8.90005H4.49995V5.30005H0.499951ZM0.499951 8.90005C0.499951 12.4899 3.4101 15.4 6.99995 15.4V11.4C5.61924 11.4 4.49995 10.2808 4.49995 8.90005H0.499951ZM6.99995 15.4C10.5898 15.4 13.5 12.4899 13.5 8.90005H9.49995C9.49995 10.2808 8.38066 11.4 6.99995 11.4V15.4ZM13.5 8.90005V5.30005H9.49995V8.90005H13.5ZM13.5 5.30005C13.5 5.90756 13.0075 6.40005 12.4 6.40005V2.40005C10.7983 2.40005 9.49995 3.69842 9.49995 5.30005H13.5ZM12.4 6.40005C11.7924 6.40005 11.3 5.90756 11.3 5.30005H15.3C15.3 3.69842 14.0016 2.40005 12.4 2.40005V6.40005ZM11.3 5.30005V8.90005H15.3V5.30005H11.3ZM11.3 8.90005C11.3 11.2749 9.37478 13.2 6.99995 13.2V17.2C11.5839 17.2 15.3 13.484 15.3 8.90005H11.3ZM6.99995 13.2C4.62513 13.2 2.69995 11.2749 2.69995 8.90005H-1.30005C-1.30005 13.484 2.41599 17.2 6.99995 17.2V13.2ZM2.69995 8.90005V5.30005H-1.30005V8.90005H2.69995ZM2.69995 5.30005C2.69995 3.91934 3.81924 2.80005 5.19995 2.80005V-1.19995C1.6101 -1.19995 -1.30005 1.7102 -1.30005 5.30005H2.69995ZM5.19995 2.80005C6.58066 2.80005 7.69995 3.91934 7.69995 5.30005H11.7C11.7 1.7102 8.7898 -1.19995 5.19995 -1.19995V2.80005ZM7.69995 5.30005V8.90005H11.7V5.30005H7.69995ZM7.69995 8.90005C7.69995 9.28665 7.38655 9.60005 6.99995 9.60005V13.6C9.59569 13.6 11.7 11.4958 11.7 8.90005H7.69995ZM6.99995 9.60005C6.61335 9.60005 6.29995 9.28665 6.29995 8.90005H2.29995C2.29995 11.4958 4.40421 13.6 6.99995 13.6V9.60005ZM6.29995 8.90005V5.30005H2.29995V8.90005H6.29995ZM6.29995 5.30005C6.29995 5.90756 5.80746 6.40005 5.19995 6.40005V2.40005C3.59833 2.40005 2.29995 3.69842 2.29995 5.30005H6.29995ZM5.19995 6.40005C4.59244 6.40005 4.09995 5.90756 4.09995 5.30005H8.09995C8.09995 3.69842 6.80158 2.40005 5.19995 2.40005V6.40005ZM4.09995 5.30005V8.90005H8.09995V5.30005H4.09995ZM4.09995 8.90005C4.09995 10.5017 5.39832 11.8 6.99995 11.8V7.80005C7.60747 7.80005 8.09995 8.29254 8.09995 8.90005H4.09995ZM6.99995 11.8C8.60158 11.8 9.89995 10.5017 9.89995 8.90005H5.89995C5.89995 8.29254 6.39244 7.80005 6.99995 7.80005V11.8ZM9.89995 8.90005V5.30005H5.89995V8.90005H9.89995ZM9.89995 5.30005C9.89995 2.70431 7.79569 0.600049 5.19995 0.600049V4.60005C5.58655 4.60005 5.89995 4.91345 5.89995 5.30005H9.89995Z" fill="#98A2B3" mask="url(#path-1-inside-1_102_88)"/>
</svg>
